<?xml version="1.0" encoding="UTF-8" standalone="no"?>
<!DOCTYPE svg PUBLIC "-//W3C//DTD SVG 1.1//EN" "http://www.w3.org/Graphics/SVG/1.1/DTD/svg11.dtd">
<svg width="100%" height="100%" viewBox="0 0 1000 456" version="1.1" xmlns="http://www.w3.org/2000/svg" xmlns:xlink="http://www.w3.org/1999/xlink" xml:space="preserve" xmlns:serif="http://www.serif.com/" style="fill-rule:evenodd;clip-rule:evenodd;stroke-miterlimit:3;">
    <g transform="matrix(2.15598,0,0,1.97345,3.13208,-51.7633)">
        <path d="M248.577,140.991C256.394,136.186 276.005,132.665 281.409,125.167C286.813,117.668 287.735,101.817 281,96C274.265,90.183 253.009,86.098 241,90.265C228.991,94.431 214.291,108.377 208.949,121C203.607,133.623 203.94,152.551 208.949,166C213.957,179.449 226.991,198.53 239,201.697C251.009,204.864 272.265,192.116 281,185C288.238,179.104 292.409,164.167 291.409,159C290.409,153.833 279.235,151.5 275,154C270.765,156.5 271.566,171.5 266,174C262.696,175.484 253.605,178.971 248.426,177.403C244.88,176.329 239.191,172.761 237.026,169C235.38,166.143 232.583,158.668 234.508,154C236.433,149.332 243.136,144.336 248.577,140.991Z" style="fill:rgb(221,44,6);"/>
    </g>
    <g transform="matrix(2.33087,0,0,2.33087,-254.165,-122.022)">
        <path d="M115.928,59.463C110.083,81.719 103.916,171.744 115.928,193C127.789,213.988 174.597,198.128 188,187C201.403,175.872 202.044,145.868 196.348,126.231C190.181,104.975 164.403,70.591 151,59.463C142.005,51.995 118.898,48.156 115.928,59.463Z" style="fill:rgb(6,197,0);"/>
    </g>
    <g transform="matrix(2.33087,0,0,2.33087,-182.39,-599.674)">
        <path d="M177,274.463C170.845,291.886 174.833,356.744 177,379C178.026,389.544 185.333,410.5 190,408C194.667,405.5 201.5,373.747 205,364C206.766,359.083 207.833,349.521 211,349.521C214.167,349.521 220.756,358.383 224,364C228.667,372.08 233.667,390.667 239,398C242.867,403.317 252.333,409.167 256,408C259.667,406.833 262.697,396.658 261,391C257.5,379.333 236.667,350.167 235,338C233.841,329.541 247.894,325.952 251,318C254.19,309.833 260.317,296.256 254.138,289C247.959,281.744 226.785,276.886 213.928,274.463C201.832,272.183 181.1,262.856 177,274.463Z" style="fill:rgb(255,182,0);"/>
    </g>
    <g transform="matrix(2.33087,0,0,2.33087,-60.9438,-120.876)">
        <path d="M293.01,90.265C293.01,102.822 307.335,141.711 308,161C308.532,176.432 311.748,201.425 297,206C256.168,218.667 103.275,230.333 63.01,237C59.136,237.641 53.911,244.333 55.409,246C56.907,247.667 66.468,247.305 72,247C108.265,245 223.772,239.954 273,234C302.278,230.459 329.547,231.289 358,165C367.946,141.828 370.218,103.489 369.718,90.265C369.524,85.127 359.953,85.655 355,85.655C350.047,85.655 341.793,85.351 340,90.265C337,98.489 338,122.711 337,135C336.212,144.686 335.167,164 334,164C332.833,164 331.44,144.651 330,135C328.167,122.711 326.667,98.489 323,90.265C320.87,85.487 312.998,85.655 308,85.655C303.002,85.655 293.01,85.037 293.01,90.265Z" style="fill:rgb(0,86,217);"/>
    </g>
    <g transform="matrix(2.33087,0,0,3.16197,-37.3939,-125.309)">
        <ellipse cx="306.5" cy="68.827" rx="12.5" ry="16.827" style="fill:white;stroke:black;stroke-width:1.68px;"/>
    </g>
    <g transform="matrix(0.93235,0,0,1.26479,398.246,9.93124)">
        <ellipse cx="306.5" cy="68.827" rx="12.5" ry="16.827"/>
    </g>
    <g transform="matrix(0.55941,0,0,0.594468,505.56,42.8431)">
        <ellipse cx="306.5" cy="68.827" rx="12.5" ry="16.827" style="fill:white;"/>
    </g>
    <g transform="matrix(-0.695779,-1.66336,2.07507,-0.867995,610.616,750.719)">
        <ellipse cx="306.5" cy="68.827" rx="12.5" ry="16.827" style="fill:white;stroke:black;stroke-width:2.29px;"/>
    </g>
    <g transform="matrix(-0.359791,-0.860132,0.912933,-0.381877,596.464,456.91)">
        <ellipse cx="306.5" cy="68.827" rx="12.5" ry="16.827"/>
    </g>
    <g transform="matrix(-0.176875,-0.422844,0.35439,-0.14824,588.795,308.931)">
        <ellipse cx="306.5" cy="68.827" rx="12.5" ry="16.827" style="fill:white;"/>
    </g>
    <g transform="matrix(-2.02642,0.392133,-0.453293,-2.34247,725.801,292.354)">
        <ellipse cx="306.5" cy="68.827" rx="12.5" ry="16.827" style="fill:white;stroke:black;stroke-width:2.09px;"/>
    </g>
    <g transform="matrix(-2.02491,0.399838,-0.4622,-2.34073,788.47,282.107)">
        <ellipse cx="306.5" cy="68.827" rx="12.5" ry="16.827" style="fill:white;stroke:black;stroke-width:2.09px;"/>
    </g>
    <g transform="matrix(-0.454383,-0.814133,0.633384,-0.353504,238.73,536.028)">
        <ellipse cx="306.5" cy="68.827" rx="12.5" ry="16.827"/>
    </g>
    <g transform="matrix(-0.223376,-0.400231,0.245873,-0.137226,202.778,396.365)">
        <ellipse cx="306.5" cy="68.827" rx="12.5" ry="16.827" style="fill:white;"/>
    </g>
    <g transform="matrix(-0.451283,-0.815855,0.634724,-0.351092,174.007,543.129)">
        <ellipse cx="306.5" cy="68.827" rx="12.5" ry="16.827"/>
    </g>
    <g transform="matrix(-0.221852,-0.401078,0.246393,-0.13629,138.586,403.33)">
        <ellipse cx="306.5" cy="68.827" rx="12.5" ry="16.827" style="fill:white;"/>
    </g>
    <g transform="matrix(2.33087,0,0,2.33087,-49.0483,-155.623)">
        <path d="M296,88C296.536,87.102 299.782,83.479 303.268,80.229C305.06,78.559 306.916,78.252 308.5,78C310.504,77.681 313.71,78.171 316.689,79.913C320.646,82.227 324.201,84.988 324,84.547C323.167,82.713 322.16,78.835 320.5,77C318.936,75.27 312.904,72.696 307.969,72.945C305.526,73.068 302.352,75.393 301,77C298.407,80.082 292.417,94 296,88Z"/>
    </g>
    <g transform="matrix(3.6673,0,0,2.33087,-581.286,-36.9155)">
        <path d="M296,82C296.244,82.201 299.782,82.479 303.268,79.229C305.06,77.559 308.916,77.252 310.5,77C312.504,76.681 313.411,78.835 316.689,79.913C317.646,80.227 319.16,77.835 318.5,77C317.055,75.17 313.904,73.696 308.969,73.945C306.526,74.068 304.352,74.393 302,76C298.674,78.272 295.776,81.815 296,82Z"/>
    </g>
    <g transform="matrix(3.39576,-1.38486,0.880197,2.15829,-1064.12,452.158)">
        <path d="M302.356,87C302.599,87.201 306.138,82.479 309.624,79.229C311.416,77.559 313.411,87.835 316.689,88.913C317.646,89.227 313.439,77.835 312.78,77C311.335,75.17 311.362,74.696 310.24,74.945C307.82,75.482 307.53,76.393 307.085,77C304.345,80.736 302.132,86.815 302.356,87Z"/>
    </g>
    <g transform="matrix(-3.62289,-0.568996,-0.361645,2.30265,1288.45,180.171)">
        <path d="M302.356,87C302.599,87.201 306.138,82.479 309.624,79.229C311.416,77.559 313.411,87.835 316.689,88.913C317.646,89.227 313.439,77.835 312.78,77C311.335,75.17 311.362,74.696 310.24,74.945C307.82,75.482 307.53,76.393 307.085,77C304.345,80.736 302.132,86.815 302.356,87Z"/>
    </g>
    <g transform="matrix(-2.06336,-0.0517084,0.0406813,-1.62334,909.223,248.263)">
        <ellipse cx="306.5" cy="68.827" rx="12.5" ry="16.827" style="fill:white;stroke:black;stroke-width:2.51px;"/>
    </g>
    <g transform="matrix(-2.06354,-0.0438593,0.0330355,-1.55429,972.556,248.098)">
        <ellipse cx="306.5" cy="68.827" rx="12.5" ry="16.827" style="fill:white;stroke:black;stroke-width:2.55px;"/>
    </g>
    <g transform="matrix(-0.213049,0.96307,-0.708233,-0.156674,459.719,-151.675)">
        <ellipse cx="306.5" cy="68.827" rx="12.5" ry="16.827"/>
    </g>
    <g transform="matrix(-0.0990013,0.447527,-0.274928,-0.0608192,390.066,-6.59108)">
        <ellipse cx="306.5" cy="68.827" rx="12.5" ry="16.827" style="fill:white;"/>
    </g>
    <g transform="matrix(-0.100357,0.997145,-0.721709,-0.0726363,362.404,-175.191)">
        <ellipse cx="306.5" cy="68.827" rx="12.5" ry="16.827"/>
    </g>
    <g transform="matrix(-0.0458983,0.456043,-0.280159,-0.0281966,309.72,-17.9236)">
        <ellipse cx="306.5" cy="68.827" rx="12.5" ry="16.827" style="fill:white;"/>
    </g>
    <g transform="matrix(3.61379,-0.624154,0.396702,2.29687,-872.494,82.9524)">
        <path d="M302.356,87C302.599,87.201 305.079,86.25 308.565,83.001C310.357,81.331 313.411,87.835 316.689,88.913C317.646,89.227 312.38,81.607 311.721,80.771C310.276,78.941 310.303,78.468 309.181,78.717C306.761,79.253 306.471,80.164 306.026,80.771C303.286,84.507 302.132,86.815 302.356,87Z"/>
    </g>
    <g transform="matrix(3.52627,1.00722,-0.640173,2.24124,-687.546,-411.984)">
        <path d="M302.356,87C302.599,87.201 306.141,88.479 309.628,85.229C311.42,83.559 315.956,91.831 316.689,88.913C317.048,87.482 313.443,83.835 312.784,83C311.338,81.17 310.73,80.697 309.609,80.946C307.188,81.483 307.534,82.393 307.089,83C304.349,86.736 302.132,86.815 302.356,87Z"/>
    </g>
    <g transform="matrix(-2.15598,0,0,1.97345,1442.12,-51.7633)">
        <path d="M248.577,140.991C256.394,136.186 276.005,132.665 281.409,125.167C286.813,117.668 287.735,101.817 281,96C274.265,90.183 253.009,86.098 241,90.265C228.991,94.431 214.291,108.377 208.949,121C203.607,133.623 203.94,152.551 208.949,166C213.957,179.449 226.991,198.53 239,201.697C251.009,204.864 272.265,192.116 281,185C288.238,179.104 292.409,164.167 291.409,159C290.409,153.833 279.235,151.5 275,154C270.765,156.5 271.566,171.5 266,174C262.696,175.484 253.605,178.971 248.426,177.403C244.88,176.329 239.191,172.761 237.026,169C235.38,166.143 232.583,158.668 234.508,154C236.433,149.332 243.136,144.336 248.577,140.991Z" style="fill:rgb(221,44,6);"/>
    </g>
    <g transform="matrix(0.695779,-1.66336,-2.07507,-0.867995,834.636,750.719)">
        <ellipse cx="306.5" cy="68.827" rx="12.5" ry="16.827" style="fill:white;stroke:black;stroke-width:2.29px;"/>
    </g>
    <g transform="matrix(0.359791,-0.860132,-0.912933,-0.381877,848.788,456.91)">
        <ellipse cx="306.5" cy="68.827" rx="12.5" ry="16.827"/>
    </g>
    <g transform="matrix(0.176875,-0.422844,-0.35439,-0.14824,856.457,308.931)">
        <ellipse cx="306.5" cy="68.827" rx="12.5" ry="16.827" style="fill:white;"/>
    </g>
    <g transform="matrix(-3.6673,0,0,2.33087,2026.54,-36.9155)">
        <path d="M296,82C296.244,82.201 299.782,82.479 303.268,79.229C305.06,77.559 308.916,77.252 310.5,77C312.504,76.681 313.411,78.835 316.689,79.913C317.646,80.227 319.16,77.835 318.5,77C317.055,75.17 313.904,73.696 308.969,73.945C306.526,74.068 304.352,74.393 302,76C298.674,78.272 295.776,81.815 296,82Z"/>
    </g>
    <g transform="matrix(2.33087,0,0,2.33087,60.5028,-155.623)">
        <g transform="matrix(1,0,0,1.35656,5,13.0055)">
            <ellipse cx="306.5" cy="68.827" rx="12.5" ry="16.827" style="fill:white;stroke:black;stroke-width:1.68px;"/>
        </g>
        <g transform="matrix(0.4,0,0,0.542624,191.9,71.0267)">
            <ellipse cx="306.5" cy="68.827" rx="12.5" ry="16.827"/>
        </g>
        <g transform="matrix(0.24,0,0,0.255041,237.94,85.1466)">
            <ellipse cx="306.5" cy="68.827" rx="12.5" ry="16.827" style="fill:white;"/>
        </g>
        <path d="M296,88C296.536,87.102 299.782,83.479 303.268,80.229C305.06,78.559 306.916,78.252 308.5,78C310.504,77.681 313.71,78.171 316.689,79.913C320.646,82.227 324.201,84.988 324,84.547C323.167,82.713 322.16,78.835 320.5,77C318.936,75.27 312.904,72.696 307.969,72.945C305.526,73.068 302.352,75.393 301,77C298.407,80.082 292.417,94 296,88Z"/>
    </g>
</svg>
